<?xml version="1.0" standalone="no"?><!DOCTYPE svg PUBLIC "-//W3C//DTD SVG 1.1//EN" "http://www.w3.org/Graphics/SVG/1.1/DTD/svg11.dtd"><svg t="1683364873795" class="icon" viewBox="0 0 1024 1024" version="1.1" xmlns="http://www.w3.org/2000/svg" p-id="4990" width="128" height="128" xmlns:xlink="http://www.w3.org/1999/xlink"><path d="M510.4 512m-488 0a488 488 0 1 0 976 0 488 488 0 1 0-976 0Z" fill="#EBD4A9" p-id="4991"></path><path d="M510.4 1020C230.4 1020 2.4 792 2.4 512S230.4 4 510.4 4 1018.4 232 1018.4 512s-228 508-508 508z m0-976C252.8 44 42.4 253.6 42.4 512s209.6 468 468 468 468-209.6 468-468S768.8 44 510.4 44z" fill="#040000" p-id="4992"></path><path d="M83.2 276C166.4 125.6 326.4 24 510.4 24c178.4 0 335.2 96 420 239.2L83.2 276z" fill="#826627" p-id="4993"></path><path d="M76.8 296c-12 0-20-12.8-14.4-24l3.2-6.4C155.2 104 325.6 4 510.4 4c178.4 0 346.4 95.2 437.6 248.8l3.2 5.6c6.4 10.4-1.6 24-13.6 24L76.8 296zM510.4 44c-158.4 0-304.8 80-391.2 211.2l775.2-11.2c-87.2-124-231.2-200-384-200z" fill="#040000" p-id="4994"></path><path d="M996 561.6c-87.2 4-190.4 77.6-257.6 194.4-41.6 72.8-62.4 148.8-62.4 215.2 172.8-62.4 300.8-220 320-409.6z" fill="#826627" p-id="4995"></path><path d="M676.8 992c-10.4 4-21.6-4-21.6-15.2v-5.6c0-72 23.2-152 65.6-224.8 69.6-120 176.8-200 274.4-204.8h4.8c9.6-0.8 17.6 8 16.8 17.6l-0.8 4.8c-20 192.8-150.4 360-333.6 426.4l-5.6 1.6z m296-407.2C896 600 811.2 669.6 755.2 766.4c-32.8 56.8-52.8 117.6-58.4 175.2 146.4-64 251.2-199.2 276-356.8z" fill="#040000" p-id="4996"></path><path d="M24.8 561.6c19.2 190.4 148 348 322.4 410.4 0-66.4-20.8-142.4-62.4-215.2-68-118.4-172-192-260-195.2z" fill="#826627" p-id="4997"></path><path d="M367.2 977.6c0 11.2-11.2 18.4-21.6 15.2l-5.6-1.6C156 925.6 24 758.4 4.8 564l-0.8-4.8c-0.8-9.6 6.4-17.6 16.8-17.6h4.8c98.4 3.2 206.4 84 276 204.8 42.4 73.6 65.6 153.6 65.6 225.6v5.6zM48 584.8c24.8 158.4 130.4 294.4 277.6 357.6-5.6-56.8-25.6-118.4-58.4-176-56-97.6-141.6-167.2-219.2-181.6z" fill="#040000" p-id="4998"></path><path d="M430.4 484l76 352 84-352z" fill="#F49E15" p-id="4999"></path><path d="M298.4 393.6m-208 0a208 208 0 1 0 416 0 208 208 0 1 0-416 0Z" fill="#EBD4A9" p-id="5000"></path><path d="M298.4 621.6c-125.6 0-228-102.4-228-228s102.4-228 228-228 228 102.4 228 228S424 621.6 298.4 621.6z m0-416c-104 0-188 84-188 188s84 188 188 188 188-84 188-188-84-188-188-188z" fill="#040000" p-id="5001"></path><path d="M347.2 340.8m-160 0a160 160 0 1 0 320 0 160 160 0 1 0-320 0Z" fill="#F4D823" p-id="5002"></path><path d="M347.2 340.8m-120 0a120 120 0 1 0 240 0 120 120 0 1 0-240 0Z" fill="#040000" p-id="5003"></path><path d="M314.4 342.4m-24.8 0a24.8 24.8 0 1 0 49.6 0 24.8 24.8 0 1 0-49.6 0Z" fill="#FFFFFF" p-id="5004"></path><path d="M722.4 393.6m-208 0a208 208 0 1 0 416 0 208 208 0 1 0-416 0Z" fill="#EBD4A9" p-id="5005"></path><path d="M722.4 621.6c-125.6 0-228-102.4-228-228s102.4-228 228-228 228 102.4 228 228S848 621.6 722.4 621.6z m0-416c-104 0-188 84-188 188s84 188 188 188 188-84 188-188-84-188-188-188z" fill="#040000" p-id="5006"></path><path d="M673.6 340.8m-160 0a160 160 0 1 0 320 0 160 160 0 1 0-320 0Z" fill="#F4D823" p-id="5007"></path><path d="M673.6 340.8m-120 0a120 120 0 1 0 240 0 120 120 0 1 0-240 0Z" fill="#040000" p-id="5008"></path><path d="M707.2 342.4m-24.8 0a24.8 24.8 0 1 0 49.6 0 24.8 24.8 0 1 0-49.6 0Z" fill="#FFFFFF" p-id="5009"></path><path d="M16 16s310.4 87.2 488 187.2C685.6 108 1004.8 16 1004.8 16c0.8 0 1.6 0 1.6 0.8v1.6L548.8 380.8 504 416l-44.8-36L15.2 19.2c-0.8-0.8-0.8-1.6 0-2.4C15.2 16 16 16 16 16z" fill="#7F6527" p-id="5010"></path><path d="M504 431.2l-52-41.6L7.2 28C1.6 24 0.8 15.2 4.8 9.6 8 4.8 14.4 3.2 20 4.8 28.8 7.2 328 92 504 189.6 685.6 96 997.6 5.6 1000.8 4.8c3.2-0.8 6.4-0.8 9.6 0.8 3.2 1.6 5.6 4.8 6.4 8 1.6 5.6 0 11.2-4.8 14.4l-456 362.4-52 40.8zM63.2 42.4l404 328L504 400l36.8-29.6 412.8-326.4C854.4 74.4 643.2 144 509.6 213.6l-5.6 4-5.6-3.2C366.4 140 158.4 72 63.2 42.4z m945.6-14.4h-0.8 0.8zM22.4 9.6z m976-0.8z" fill="#040000" p-id="5011"></path></svg>